<svg width="132" height="132" viewBox="0 0 132 132" fill="none" xmlns="http://www.w3.org/2000/svg">
<rect width="132" height="132" rx="22" fill="#E2EBD5"/>
<path d="M95.0681 21.5776C94.1034 19.9775 92.3758 19 90.5128 19L53.5204 19L44.848 34.0556C45.8709 32.9338 47.3158 32.2946 48.8307 32.2936L82.7839 32.2719L101.515 32.2707L95.0681 21.5776Z" fill="#AAB952"/>
<path d="M82.7839 32.2719C84.2607 32.6666 85.5215 33.6328 86.2902 34.9589L103.484 64.618L112.899 80.9636L120.226 68.8553C121.256 67.1526 121.258 65.0158 120.23 63.3114L101.515 32.2707L82.7839 32.2719Z" fill="#D5D170"/>
<path d="M103.484 64.618C103.712 66.1148 103.421 67.6449 102.66 68.9524L85.6539 98.1802L77.1173 113H90.5185C92.3785 113 94.1037 112.026 95.0694 110.43L112.899 80.9636L103.484 64.618Z" fill="#2E6514"/>
<path d="M85.6539 98.1802C84.5707 99.2132 83.1338 99.7892 81.6398 99.7892H47.8052H28.4136L34.4134 110.31C35.362 111.974 37.1251 113 39.0344 113H77.1173L85.6539 98.1802Z" fill="#15570B"/>
<path d="M47.8052 99.7892C46.3184 99.3551 45.0618 98.3504 44.3076 96.9929L27.9832 67.609L18.0788 50.4146L10.6973 63.4324C9.76527 65.0761 9.76772 67.0919 10.7038 68.7333L28.4136 99.7892H47.8052Z" fill="#528247"/>
<path d="M27.9832 67.609C27.66 66.1915 27.8707 64.704 28.5747 63.4332L44.848 34.0556L53.5204 19L38.9879 19C37.0739 19 35.3072 20.0312 34.3604 21.7011L18.0788 50.4146L27.9832 67.609Z" fill="#7D9D3A"/>
</svg>
