<svg width="1485" height="230" viewBox="0 0 1485 230" fill="none" xmlns="http://www.w3.org/2000/svg">
<path d="M704.662 108.378C704.662 108.153 705.295 106.823 706.066 105.419L724.021 77.3275L724.678 78.2621L796.574 197.052C797.238 197.746 796.326 197.778 774.953 197.766C757.36 197.762 752.637 197.864 752.629 198.268L704.949 122.662C704.166 120.756 703.364 118.459 703.163 117.561C702.955 116.606 702.943 114.953 703.144 113.582C703.329 112.292 703.745 110.684 704.072 110.01C704.394 109.337 704.662 108.602 704.662 108.378Z" fill="#528247"/>
<path d="M921.05 225.287C919.929 227.119 918.582 229.781 915.658 229.796C901.761 229.869 887.868 229.731 873.972 229.731L941.935 117.051C942.177 116.625 942.767 115.605 943.16 114.993L965.772 152.517C965.851 152.58 965.904 152.618 965.939 152.641C966.041 152.707 965.98 152.636 965.939 152.641C965.89 152.647 965.866 152.76 966.166 153.333L923.212 221.711C922.843 222.344 921.868 223.952 921.05 225.287Z" fill="#15570B"/>
<path d="M866.382 33.3842C827.612 33.4413 795.905 33.3964 795.921 33.2821C802.088 22.2029 808.078 13.0258 815.157 1.19756C842.634 1.19817 879.677 1.23976 913.212 1.2435C915.833 1.24379 918.273 2.58934 919.735 4.84522C923.857 11.209 932.516 24.5721 938.048 33.0781C937.777 33.1923 905.151 33.327 866.382 33.3842Z" fill="#AAB952"/>
<path d="M967.909 150.738C967.059 152.15 966.273 153.301 966.167 153.301L893.741 33.1966L937.952 32.9764L984.523 106.133C985.266 107.705 986.076 109.358 986.324 109.806C986.572 110.255 986.847 112.459 986.938 114.704C987.091 118.585 987.04 118.924 985.86 121.642C985.18 123.213 984.456 124.773 984.256 125.111C984.055 125.446 983.237 126.915 982.435 128.376C981.637 129.833 980.866 131.123 980.728 131.233C980.591 131.343 979.604 132.784 978.534 134.433C977.461 136.078 975.899 138.555 975.062 139.943C974.22 141.326 973.418 142.551 973.276 142.661C973.135 142.771 972.329 143.967 971.487 145.314C970.642 146.66 969.84 147.856 969.702 147.966C969.568 148.077 968.758 149.325 967.909 150.738Z" fill="#D5D170"/>
<path d="M770.223 3.37049C771.112 2.21724 771.702 1.4015 773.105 1.0809C773.753 0.889076 783.313 1.1013 794.615 1.0809C808.076 1.05641 813.977 1.19673 815.157 1.19756L753.62 103.892C752.873 105.125 751.724 107.239 751.064 108.586C750.407 109.933 749.691 112.047 749.471 113.279C749.212 114.753 749.035 115.829 749.287 117.033C749.471 118.664 749.845 119.557 749.805 119.619C749.762 119.684 749.082 118.458 748.343 117.271C743.928 110.204 723.785 77.6824 723.785 77.6824C723.785 77.6824 724.622 76.1397 726.066 73.895L770.223 3.37049Z" fill="#7D9D3A"/>
<path d="M752.637 198.37C752.637 197.835 755.425 197.746 774.953 197.652C787.226 197.595 818.902 197.501 845.343 197.448C871.785 197.395 893.611 197.444 893.611 197.554C891.336 201.328 874.734 229.694 874.734 229.694C874.734 229.694 852.335 230 825.19 230C786.955 230 775.421 229.886 773.994 229.49C772.956 229.204 771.453 228.339 770.553 227.515C769.676 226.706 768.378 224.96 767.671 223.637C766.967 222.311 765.327 219.527 764.033 217.45C762.739 215.373 761.681 213.581 761.681 213.471C761.681 213.361 760.993 212.21 760.156 210.92C759.318 209.63 758.319 207.928 757.938 207.145C757.556 206.361 757.116 205.623 756.959 205.512C756.801 205.402 756.082 204.296 755.362 203.064C754.642 201.831 753.868 200.684 753.64 200.521C753.412 200.354 753.361 200.215 753.522 200.215C753.683 200.211 753.549 199.933 753.227 199.594C752.904 199.256 752.637 198.709 752.637 198.37Z" fill="#2E6514"/>
<path fill-rule="evenodd" clip-rule="evenodd" d="M1298.99 3.59858C1297.68 1.30857 1298.33 0 1300.95 0H1338.3C1340.92 0 1343.54 1.30857 1344.85 3.59858L1483.75 225.401C1485.06 227.691 1484.07 229 1481.78 229H1444.44C1441.82 229 1439.2 227.691 1437.89 225.401L1396.28 158.991C1394.64 156.701 1393.01 155.393 1391.37 155.393C1389.73 155.393 1388.09 156.701 1386.45 158.991L1344.85 225.401C1343.54 227.691 1340.92 229 1338.3 229H1300.95C1298.33 229 1297.68 227.691 1298.99 225.401L1363.52 122.351C1366.47 117.771 1366.47 111.229 1363.52 106.649L1298.99 3.59858Z" fill="white"/>
<path d="M1444.44 0C1441.82 0 1439.2 1.30857 1437.89 3.59858L1406.59 52.7007C1405.34 54.6544 1405.33 57.1506 1406.56 59.1134L1425.81 89.81C1426.6 91.057 1428.41 91.0606 1429.2 89.8168L1483.75 3.59858C1485.06 1.30857 1484.07 0 1481.78 0H1444.44Z" fill="#7D9D3A"/>
<path d="M1221 4.2533C1221 1.63588 1222.64 0 1225.26 0H1256.07C1258.69 0 1260.33 1.63588 1260.33 4.2533V224.77C1260.33 227.388 1258.69 229.024 1256.07 229.024H1225.26C1222.64 229.024 1221 227.388 1221 224.77V4.2533Z" fill="white"/>
<path d="M1025.97 196.164C1024.46 194.351 1024.76 192.236 1026.57 190.726L1048.66 173.505C1050.48 172.297 1052.59 172.297 1054.11 174.109C1067.42 189.517 1087.69 194.351 1107.36 194.351C1123.39 194.351 1147.3 188.309 1147.3 168.369C1147.3 127.887 1029.6 132.116 1029.6 62.9327C1029.6 21.5435 1064.09 1 1102.22 1C1128.24 1 1153.65 12.7823 1173.62 29.3984C1175.44 30.909 1175.44 33.3259 1173.92 34.8364L1155.47 55.6821C1153.65 57.4947 1151.53 57.4947 1150.02 55.9842C1136.4 43.8997 1119.46 36.6491 1101 36.6491C1082.85 36.6491 1065.3 42.9934 1065.3 64.1412C1065.3 100.394 1183 95.5607 1183 169.578C1183 210.665 1142.46 230 1106.15 230C1076.19 230 1045.33 219.728 1025.97 196.164Z" fill="white"/>
<path d="M227.963 230C225.37 230 224.397 228.38 225.37 226.113L327.8 2.91549C328.448 1.29578 330.717 0 332.662 0C334.607 0 336.552 1.29578 337.2 2.91549L439.63 226.113C440.603 228.38 439.63 230 437.037 230H405.271C402.678 230 400.084 228.38 399.112 226.113L390.036 206.352C387.767 201.493 382.58 198.254 377.07 198.254H287.93C282.42 198.254 277.233 201.493 274.964 206.352L265.888 226.113C264.916 228.38 262.322 230 260.053 230H227.963ZM299.275 153.549C297.006 158.732 299.275 161.972 304.786 161.972H360.539C366.049 161.972 367.994 158.732 365.725 153.549L336.552 90.0563C335.255 87.4648 333.959 86.169 332.662 86.169C331.366 86.169 330.069 87.4648 328.772 90.0563L299.275 153.549Z" fill="white"/>
<path d="M0 225.747V5.25286C0 2.63571 1.63748 1 4.25744 1H9.16988C11.4623 1 14.4098 2.30857 16.0473 3.94429L141.478 138.4C143.116 140.036 144.098 140.69 145.408 140.69C146.718 140.69 147.701 139.054 147.701 135.783V5.25286C147.701 2.63571 149.338 1 151.958 1H182.743C185.363 1 187 2.63571 187 5.25286V225.747C187 228.364 185.363 230 182.743 230H178.158C175.538 230 172.59 228.691 170.953 226.729L45.5219 91.9457C44.2119 90.31 42.9019 89.6557 41.5919 89.6557C40.282 89.6557 39.2995 91.2914 39.2995 94.5629V225.747C39.2995 228.364 37.662 230 35.042 230H4.25744C1.63748 230 0 228.364 0 225.747Z" fill="white"/>
<path d="M478 225.747V5.25286C478 2.63571 479.637 1 482.257 1H487.17C489.462 1 492.41 2.30857 494.047 3.94429L619.478 138.4C621.116 140.036 622.098 140.69 623.408 140.69C624.718 140.69 625.701 139.054 625.701 135.783V5.25286C625.701 2.63571 627.338 1 629.958 1H660.743C663.363 1 665 2.63571 665 5.25286V225.747C665 228.364 663.363 230 660.743 230H656.158C653.538 230 650.59 228.691 648.953 226.729L523.522 91.9457C522.212 90.31 520.902 89.6557 519.592 89.6557C518.282 89.6557 517.299 91.2914 517.299 94.5629V225.747C517.299 228.364 515.662 230 513.042 230H482.257C479.637 230 478 228.364 478 225.747Z" fill="white"/>
</svg>
