<svg width="48" height="48" viewBox="0 0 48 48" fill="none" xmlns="http://www.w3.org/2000/svg">
<path fill-rule="evenodd" clip-rule="evenodd" d="M14 15.5C11.7457 15.5 9.58365 16.3955 7.98959 17.9896C6.39553 19.5837 5.5 21.7457 5.5 24C5.5 26.2543 6.39553 28.4164 7.98959 30.0104C9.58365 31.6045 11.7457 32.5 14 32.5C15.194 32.5 16.09 32.286 16.814 31.932C17.538 31.58 18.172 31.048 18.786 30.3C19.866 28.98 20.752 27.184 21.92 24.818C22.1533 24.3447 22.4 23.8487 22.66 23.33L23.34 21.95C24.502 19.588 25.574 17.41 26.894 15.8C27.714 14.798 28.674 13.954 29.874 13.37C31.074 12.786 32.432 12.5 34 12.5C35.8222 12.5 37.6183 12.933 39.2403 13.7634C40.8624 14.5937 42.2638 15.7976 43.3293 17.2758C44.3948 18.7541 45.0937 20.4644 45.3685 22.2657C45.6433 24.0671 45.4861 25.9079 44.9099 27.6366C44.3336 29.3653 43.3549 30.9323 42.0542 32.2085C40.7536 33.4847 39.1683 34.4336 37.4289 34.9769C35.6896 35.5202 33.8461 35.6425 32.0503 35.3335C30.2545 35.0246 28.5578 34.2933 27.1 33.2C26.7817 32.9613 26.5713 32.606 26.5151 32.2121C26.4588 31.8183 26.5613 31.4183 26.8 31.1C27.0387 30.7818 27.3941 30.5713 27.7879 30.5151C28.1817 30.4588 28.5817 30.5613 28.9 30.8C29.9775 31.6081 31.2316 32.1486 32.5589 32.377C33.8863 32.6053 35.2489 32.515 36.5344 32.1134C37.82 31.7118 38.9918 31.0105 39.9531 30.0672C40.9145 29.1239 41.6379 27.9657 42.0638 26.6879C42.4897 25.4102 42.6059 24.0496 42.4028 22.7181C42.1997 21.3867 41.6831 20.1226 40.8956 19.03C40.1081 17.9374 39.0722 17.0475 37.8733 16.4338C36.6744 15.8201 35.3469 15.5 34 15.5C32.806 15.5 31.91 15.714 31.186 16.068C30.462 16.42 29.828 16.952 29.214 17.7C28.134 19.02 27.248 20.816 26.08 23.182C25.8467 23.6553 25.6 24.1513 25.34 24.67L24.66 26.05C23.498 28.412 22.426 30.59 21.106 32.202C20.286 33.202 19.326 34.046 18.126 34.63C16.926 35.214 15.566 35.5 14 35.5C12.1779 35.4997 10.3819 35.0664 8.76012 34.2359C7.1383 33.4053 5.73705 32.2013 4.67184 30.723C3.60662 29.2446 2.90793 27.5344 2.63334 25.7331C2.35874 23.9318 2.51611 22.091 3.09246 20.3624C3.66881 18.6339 4.64766 17.067 5.94834 15.791C7.24902 14.5149 8.8343 13.5662 10.5736 13.0229C12.3128 12.4797 14.1562 12.3576 15.952 12.6665C17.7477 12.9755 19.4443 13.7067 20.902 14.8C21.0596 14.9183 21.1923 15.0665 21.2926 15.2361C21.393 15.4058 21.4589 15.5935 21.4866 15.7886C21.5144 15.9837 21.5035 16.1823 21.4545 16.3732C21.4055 16.5641 21.3193 16.7434 21.201 16.901C21.0827 17.0586 20.9345 17.1913 20.7649 17.2916C20.5952 17.392 20.4075 17.4579 20.2124 17.4856C20.0173 17.5134 19.8187 17.5025 19.6278 17.4535C19.4369 17.4044 19.2576 17.3183 19.1 17.2C17.6301 16.0939 15.8396 15.4971 14 15.5Z" fill="#2E6514"/>
</svg>
