<svg width="48" height="48" viewBox="0 0 48 48" fill="none" xmlns="http://www.w3.org/2000/svg">
<path d="M16 28.48C20.608 28.48 24.576 29.2864 27.44 31.216C30.4064 33.216 32 36.2976 32 40.32C31.9743 40.7268 31.7945 41.1086 31.4973 41.3876C31.2 41.6666 30.8077 41.8219 30.4 41.8219C29.9923 41.8219 29.6 41.6666 29.3027 41.3876C29.0055 41.1086 28.8257 40.7268 28.8 40.32C28.8 37.2544 27.6544 35.2128 25.6544 33.8656C23.5488 32.4512 20.32 31.68 16 31.68C11.68 31.68 8.448 32.4512 6.3456 33.8688C4.3456 35.216 3.2 37.2576 3.2 40.3232C3.17426 40.73 2.99448 41.1118 2.69726 41.3908C2.40003 41.6698 2.00767 41.8251 1.6 41.8251C1.19233 41.8251 0.799973 41.6698 0.502745 41.3908C0.205517 41.1118 0.0257447 40.73 0 40.3232C0 36.2976 1.5904 33.216 4.5568 31.216C7.4208 29.2864 11.392 28.48 16 28.48ZM31.92 28.48C36.5248 28.48 40.496 29.2864 43.36 31.216C46.3264 33.216 47.92 36.2976 47.92 40.3232C47.92 40.7475 47.7514 41.1545 47.4514 41.4545C47.1513 41.7546 46.7444 41.9232 46.32 41.9232C45.8957 41.9232 45.4887 41.7546 45.1886 41.4545C44.8886 41.1545 44.72 40.7475 44.72 40.3232C44.72 37.2576 43.5744 35.216 41.5712 33.8688C39.9136 32.752 37.5616 32.0448 34.5248 31.7888C33.7684 30.5531 32.8298 29.4387 31.7408 28.4832L31.92 28.48ZM16 5.91997C18.6294 5.98623 21.1289 7.07731 22.9651 8.96045C24.8014 10.8436 25.8292 13.3697 25.8292 16C25.8292 18.6302 24.8014 21.1563 22.9651 23.0395C21.1289 24.9226 18.6294 26.0137 16 26.08C13.3266 26.08 10.7627 25.018 8.87236 23.1276C6.982 21.2372 5.92 18.6733 5.92 16C5.92 13.3266 6.982 10.7627 8.87236 8.87233C10.7627 6.98196 13.3266 5.91997 16 5.91997ZM31.92 5.91997C34.5934 5.91997 37.1573 6.98196 39.0476 8.87233C40.938 10.7627 42 13.3266 42 16C42 18.6733 40.938 21.2372 39.0476 23.1276C37.1573 25.018 34.5934 26.08 31.92 26.08C30.2432 26.08 28.6688 25.664 27.28 24.9408C27.9497 24.0987 28.5228 23.1841 28.9888 22.2144C30.0374 22.7104 31.1945 22.9333 32.3524 22.8622C33.5102 22.7912 34.6313 22.4285 35.6114 21.8079C36.5915 21.1873 37.3988 20.329 37.9582 19.3127C38.5176 18.2964 38.8109 17.1552 38.8109 15.9952C38.8109 14.8351 38.5176 13.6939 37.9582 12.6776C37.3988 11.6613 36.5915 10.803 35.6114 10.1824C34.6313 9.56184 33.5102 9.19915 32.3524 9.12809C31.1945 9.05703 30.0374 9.27989 28.9888 9.77597C28.5214 8.80826 27.9472 7.89591 27.2768 7.05597C28.7078 6.30499 30.3007 5.91502 31.9168 5.91997M16 9.11997C14.2116 9.17452 12.5148 9.92329 11.2691 11.2076C10.0233 12.4919 9.32666 14.2108 9.32666 16C9.32666 17.7892 10.0233 19.5081 11.2691 20.7924C12.5148 22.0766 14.2116 22.8254 16 22.88C17.8247 22.88 19.5746 22.1551 20.8649 20.8649C22.1551 19.5746 22.88 17.8247 22.88 16C22.88 14.1753 22.1551 12.4253 20.8649 11.1351C19.5746 9.84482 17.8247 9.11997 16 9.11997Z" fill="#2E6514"/>
</svg>
