<svg width="48" height="48" viewBox="0 0 48 48" fill="none" xmlns="http://www.w3.org/2000/svg">
<path d="M23.9998 2.5C25.6659 2.5001 26.8453 3.54721 27.7986 4.79199C28.751 6.03571 29.7623 7.85722 31.0046 10.085L31.6599 11.2617H31.6609C32.4458 12.6703 32.6467 12.9708 32.8982 13.1621C33.1384 13.3448 33.4507 13.4477 34.9802 13.793H34.9812L36.2537 14.0811C38.6624 14.6265 40.6441 15.0708 42.0798 15.6367C43.4525 16.1779 44.6637 16.9592 45.2166 18.3613L45.3181 18.6504L45.3191 18.6514C45.8063 20.2203 45.2576 21.665 44.4099 23.0117C43.7816 24.01 42.8665 25.1419 41.7546 26.457L40.5798 27.835L39.7117 28.8477C38.6791 30.056 38.4614 30.3533 38.3601 30.6777C38.2565 31.0119 38.2676 31.3987 38.4236 33.0088L38.5554 34.3623V34.3633C38.8037 36.9318 39.0098 39.0222 38.9392 40.6074C38.8685 42.1949 38.5078 43.7204 37.197 44.7148C35.8621 45.7273 34.3085 45.613 32.8093 45.1836C31.3294 44.7596 29.4779 43.9029 27.2244 42.8652L26.031 42.3174L26.0271 42.3154C24.597 41.655 24.2876 41.5499 23.9998 41.5498C23.712 41.5499 23.4029 41.6553 21.9734 42.3154L21.9705 42.3164L20.7791 42.8652V42.8643C18.524 43.9022 16.6721 44.7593 15.1921 45.1836C13.694 45.6131 12.1408 45.729 10.8064 44.7178L10.8054 44.7168C9.49412 43.7217 9.13232 42.197 9.06128 40.6084C8.99038 39.0227 9.19674 36.9319 9.44507 34.3633V34.3623L9.5769 33.0098C9.73292 31.3974 9.74265 31.0147 9.6394 30.6855L9.63647 30.6768C9.53723 30.3537 9.32293 30.0595 8.28882 28.8516L8.28784 28.8506L7.41968 27.834V27.833C5.77536 25.9112 4.42827 24.3435 3.59058 23.0127C2.74259 21.6654 2.19435 20.2209 2.6814 18.6514C3.17396 17.0641 4.45697 16.213 5.92163 15.6357C7.35822 15.0696 9.34017 14.6254 11.7488 14.0811L13.0212 13.793L13.9568 13.5742C14.6995 13.3913 14.9216 13.2986 15.1042 13.1602C15.3553 12.9696 15.5534 12.6726 16.3396 11.2617H16.3406L16.9958 10.085C18.2382 7.85719 19.2495 6.03569 20.2019 4.79199C21.1552 3.54732 22.3338 2.5002 23.9998 2.5ZM23.9998 5.5C23.772 5.50012 23.3698 5.58987 22.5837 6.61621C21.7963 7.64444 20.9073 9.2312 19.616 11.5469L18.9597 12.7217C18.3065 13.8938 17.7893 14.8903 16.9167 15.5518C16.2566 16.0522 15.4818 16.2974 14.6003 16.5098L13.6833 16.7188L12.4119 17.0068H12.4109C9.9003 17.5743 8.19145 17.9656 7.02124 18.4268C5.87901 18.8769 5.6381 19.2463 5.54663 19.541C5.44986 19.8533 5.44757 20.3314 6.12964 21.415C6.82222 22.5153 7.99108 23.8875 9.69995 25.8848L9.70093 25.8857L10.5681 26.9004L11.1912 27.6328C11.7799 28.3396 12.2564 28.9982 12.5007 29.7871H12.5017C12.8301 30.8336 12.695 31.9394 12.5632 33.3008V33.3018L12.4314 34.6533C12.1738 37.3182 11.9993 39.153 12.0583 40.4746C12.1174 41.7932 12.3964 42.1583 12.6189 42.3271L12.7009 42.3818C12.9178 42.5081 13.3261 42.5976 14.365 42.2998C15.571 41.9541 17.1746 41.2215 19.5251 40.1396L19.5261 40.1387L20.7175 39.5908C21.9015 39.0441 22.9007 38.5499 23.9998 38.5498C25.0996 38.5499 26.0999 39.0446 27.2849 39.5918H27.2839L28.4763 40.1387L28.4773 40.1396C30.8269 41.2216 32.4298 41.9544 33.6355 42.2998C34.8213 42.6395 35.1865 42.4746 35.3835 42.3252C35.6044 42.1576 35.8833 41.7934 35.9421 40.4746C36.001 39.1531 35.8267 37.3181 35.5691 34.6533L35.4373 33.2998V33.2988C35.3053 31.9375 35.1716 30.8357 35.4958 29.79V29.7881C35.8228 28.7373 36.5627 27.917 37.4324 26.8994V26.8984L38.3005 25.8848L39.4812 24.498C40.5634 23.2171 41.3513 22.2385 41.8708 21.4131C42.5526 20.3299 42.5501 19.8528 42.4539 19.542L42.4109 19.4277C42.2874 19.1527 41.9777 18.8213 40.9792 18.4277C39.8096 17.9667 38.1015 17.5754 35.5906 17.0068L34.3191 16.7188V16.7178C33.0497 16.4313 31.9613 16.2188 31.0818 15.5498C30.4305 15.0543 29.9763 14.372 29.5134 13.5664L29.0398 12.7227L28.3845 11.5469C27.0932 9.23124 26.2041 7.64446 25.4167 6.61621C24.6304 5.58941 24.2275 5.50006 23.9998 5.5Z" fill="#2E6514"/>
</svg>
