<svg width="48" height="48" viewBox="0 0 48 48" fill="none" xmlns="http://www.w3.org/2000/svg">
<path d="M15.6795 31.476C16.2525 33.3061 17.1711 35.0093 18.3855 36.4935L13.9395 40.9395C13.7962 41.0779 13.682 41.2434 13.6033 41.4264C13.5247 41.6094 13.4834 41.8062 13.4816 42.0054C13.4799 42.2046 13.5178 42.4021 13.5933 42.5864C13.6687 42.7708 13.7801 42.9382 13.9209 43.0791C14.0617 43.2199 14.2292 43.3313 14.4136 43.4067C14.5979 43.4821 14.7954 43.5201 14.9946 43.5184C15.1938 43.5166 15.3906 43.4753 15.5736 43.3966C15.7566 43.318 15.9221 43.2038 16.0605 43.0605L20.5065 38.6145C23.1833 40.8086 26.5389 42.0052 30 42C38.2845 42 45 35.2845 45 27V16.5C45 15.3065 44.5259 14.1619 43.682 13.318C42.8381 12.4741 41.6935 12 40.5 12H30C29.537 12 29.0795 12.0205 28.6275 12.0615C27.5161 9.79257 25.7903 7.88104 23.6464 6.54431C21.5025 5.20758 19.0265 4.49929 16.5 4.5H7.5C6.30653 4.5 5.16193 4.97411 4.31802 5.81802C3.47411 6.66193 3 7.80652 3 9V18C2.99976 21.4385 4.31163 24.7476 6.66792 27.2519C9.02421 29.7562 12.2473 31.267 15.6795 31.476ZM6 9C6 8.60217 6.15804 8.22064 6.43934 7.93934C6.72064 7.65803 7.10218 7.5 7.5 7.5H16.5C18.3281 7.4997 20.1246 7.9767 21.7118 8.88382C23.299 9.79093 24.6219 11.0967 25.5495 12.672C22.6791 13.5642 20.143 15.2981 18.27 17.649L13.0605 12.4395C12.7776 12.1663 12.3987 12.0151 12.0054 12.0185C11.6121 12.0219 11.2359 12.1797 10.9578 12.4578C10.6797 12.7359 10.5219 13.1121 10.5185 13.5054C10.5151 13.8987 10.6663 14.2776 10.9395 14.5605L16.6095 20.2305C15.3314 22.7534 14.7956 25.5872 15.0645 28.4025C12.552 28.0557 10.25 26.8113 8.58375 24.8991C6.91752 22.9869 5.99974 20.5363 6 18V9ZM30 39C27.3347 39.0038 24.7445 38.1168 22.641 36.48L32.5605 26.5605C32.8337 26.2776 32.9849 25.8987 32.9815 25.5054C32.9781 25.1121 32.8203 24.7359 32.5422 24.4578C32.2641 24.1797 31.8879 24.0219 31.4946 24.0185C31.1013 24.0151 30.7224 24.1663 30.4395 24.4395L20.52 34.359C19.1429 32.5852 18.2911 30.4605 18.0615 28.2266C17.832 25.9928 18.2339 23.7393 19.2215 21.7225C20.2091 19.7057 21.7428 18.0064 23.6483 16.818C25.5537 15.6296 27.7544 14.9997 30 15H40.5C40.8978 15 41.2794 15.158 41.5607 15.4393C41.842 15.7206 42 16.1022 42 16.5V27C42 30.1826 40.7357 33.2348 38.4853 35.4853C36.2348 37.7357 33.1826 39 30 39Z" fill="#2E6514"/>
</svg>
