<svg width="623" height="227" viewBox="0 0 623 227" fill="none" xmlns="http://www.w3.org/2000/svg">
<path d="M598.349 16C611.963 16 623 26.9942 623 40.5562V127.867C623 141.429 611.963 152.423 598.349 152.423H24.6512C11.0369 152.423 8.82317e-08 141.429 0 127.867V40.5562C1.41179e-06 26.9942 11.0369 16 24.6512 16H598.349ZM26.1878 31.4649C20.2676 31.6142 15.5137 36.4418 15.5137 42.3752L15.5173 126.33C15.6672 132.227 20.5139 136.962 26.4702 136.962C282.834 136.962 340.166 136.962 596.53 136.962C602.486 136.962 607.333 132.227 607.483 126.33L607.486 42.3752C607.486 36.4419 602.733 31.6144 596.813 31.4649H53.6599V94.3466C53.6599 97.0629 54.7657 99.236 56.3954 100.866C58.0252 102.496 60.1984 103.311 62.9146 103.311H86.0933C88.8553 103.311 91.422 104.736 92.8828 107.08L102.231 122.081C103.061 123.413 102.103 125.139 100.534 125.139H57.9089C54.0286 125.139 50.4588 124.518 47.1993 123.276C44.0173 122.034 41.2614 120.288 38.9331 118.038C36.6825 115.71 34.9364 112.954 33.6946 109.772C32.4529 106.513 31.8321 102.942 31.8321 99.0619V31.4649H26.1878Z" fill="#D80000"/>
<path d="M26.1878 31.4649C20.2676 31.6142 15.5137 36.4418 15.5137 42.3752L15.5173 126.33C15.6672 132.227 20.5139 136.962 26.4702 136.962H596.53C602.486 136.962 607.333 132.227 607.483 126.33L607.486 42.3752C607.486 36.4419 602.733 31.6144 596.813 31.4649H53.6599V94.3466C53.6599 97.0629 54.7657 99.236 56.3954 100.866C58.0252 102.496 60.1984 103.311 62.9146 103.311H86.0933C88.8553 103.311 91.422 104.736 92.8828 107.08L102.231 122.081C103.061 123.413 102.103 125.139 100.534 125.139H57.9089C54.0286 125.139 50.4588 124.518 47.1993 123.276C44.0173 122.034 41.2614 120.288 38.9331 118.038C36.6825 115.71 34.9364 112.954 33.6946 109.772C32.4529 106.513 31.8321 102.942 31.8321 99.0619V31.4649H26.1878Z" fill="#F5F9FA"/>
<path d="M520.094 45.1055C523.044 45.1058 525.913 46.9621 527.151 49.6369L546.956 92.6822L566.3 49.6591L566.303 49.652L566.306 49.644C567.569 46.9088 570.347 45.1056 573.367 45.1055H583.656C588.074 45.1057 591.475 48.5036 591.477 52.9223L591.579 117.343V117.348C591.579 119.444 590.896 121.36 589.423 122.87L589.424 122.871C589.414 122.882 589.402 122.893 589.392 122.904C589.379 122.917 589.367 122.931 589.354 122.944L589.353 122.943C587.858 124.509 585.878 125.17 583.758 125.17H577.748C575.618 125.17 573.673 124.465 572.151 122.944C570.63 121.423 569.926 119.477 569.926 117.348V93.923L557.612 120.629C556.375 123.308 553.504 125.17 550.55 125.17H543.42C540.399 125.17 537.621 123.365 536.359 120.63L524.044 93.9248V117.348C524.044 121.118 520.122 125.169 516.223 125.17H510.315C505.92 125.17 502.493 121.743 502.493 117.348V52.9267C502.493 48.0345 505.584 45.1055 510.315 45.1055H520.094Z" fill="#D80000"/>
<path d="M437.253 45.0117C441.673 45.0119 445.075 48.4111 445.075 52.833V91.8291C445.075 97.0353 446.358 100.635 448.54 103.03C450.569 105.256 454.315 106.723 460.58 106.723C467.001 106.723 470.804 105.247 472.824 103.03C475.006 100.635 476.289 97.035 476.289 91.8291V52.833C476.289 48.4582 479.728 45.0117 484.11 45.0117H490.63C495.05 45.0119 498.451 48.4126 498.451 52.833V92.338C498.451 98.1711 497.207 103.589 494.692 108.546L494.689 108.554L494.685 108.561C492.08 113.619 487.865 117.621 482.235 120.619C476.482 123.682 469.207 125.116 460.58 125.116C451.953 125.116 444.678 123.682 438.925 120.619L438.918 120.617L438.912 120.613C433.348 117.611 429.177 113.608 426.577 108.561L426.566 108.54L426.555 108.518C424.116 103.567 422.913 98.1584 422.913 92.338V52.833C422.913 48.4376 426.344 45.0119 430.734 45.0117H437.253Z" fill="#D80000"/>
<path d="M358.498 45.1055C360.794 45.1058 363.101 46.3812 364.622 48.0459L396.164 87.4154L396.081 52.8549V52.8487C396.081 48.4773 399.569 45.1055 403.919 45.1055H410.451C414.84 45.1058 418.288 48.4319 418.288 52.8487L418.288 117.396C418.288 121.327 414.232 125.14 410.451 125.141H403.102C400.731 125.14 398.467 124.07 396.989 122.213L364.841 81.4475L365.008 117.384V117.396C365.008 121.863 361.466 125.14 357.171 125.141H350.639C346.276 125.141 342.801 121.788 342.801 117.396L342.801 52.8487C342.801 48.4788 346.288 45.1055 350.639 45.1055H358.498Z" fill="#D80000"/>
<path d="M330.741 45.1055C335.16 45.1057 338.561 48.5042 338.562 52.9232L338.552 117.315V117.318C338.552 121.696 335.083 125.14 330.731 125.141H324.211C319.816 125.141 316.389 121.713 316.389 117.318L316.502 52.9267C316.502 48.5415 319.916 45.1055 324.324 45.1055H330.741Z" fill="#D80000"/>
<path fill-rule="evenodd" clip-rule="evenodd" d="M276.878 45.1055C288 45.1055 296.782 47.2098 302.714 51.9089C308.699 56.6506 311.591 63.4056 311.591 71.7711C311.591 76.531 310.204 81.1768 307.552 85.6745L307.553 85.6754C305.341 89.4667 302.129 92.3845 298.036 94.4666L309.899 113.031C311.107 114.803 311.901 116.727 311.901 118.745C311.901 123.363 307.402 125.14 303.469 125.141H296.746C295.445 125.14 293.945 124.81 292.837 124.102C291.827 123.46 290.822 122.573 290.178 121.553L275.396 98.3354H265.957V117.318C265.957 121.81 262.496 125.14 258.136 125.141H251.617C247.222 125.141 243.794 121.713 243.794 117.318V52.9267C243.794 48.5506 247.21 45.1055 251.617 45.1055H276.878ZM265.957 79.9423H277.489C281.083 79.9423 289.201 79.9423 289.201 71.4807C289.201 63.75 281.083 63.4986 277.489 63.4986H265.957V79.9423Z" fill="#D80000"/>
<path fill-rule="evenodd" clip-rule="evenodd" d="M205.33 45.1055C219.946 45.1056 236.393 50.5884 236.394 67.7877C236.394 73.5405 234.261 79.5991 230.079 83.6436C235.855 87.4765 239.247 94.1282 239.247 101.026C239.247 119.947 221.823 125.14 206.145 125.141H182.5C178.091 125.141 174.673 121.688 174.673 117.287V52.9581C174.674 48.058 177.754 45.1055 182.5 45.1055H205.33ZM196.848 106.775H204.705C208.343 106.775 213.8 106.775 213.8 100.13C213.8 93.6408 207.888 93.6408 204.705 93.6408H196.848V106.775ZM196.848 75.3781H204.705C208.343 75.3781 213.8 75.3781 213.8 69.6617C213.8 63.4708 208.797 63.5218 204.705 63.5218L196.848 63.4708V75.3781Z" fill="#D80000"/>
<path d="M108.928 45.1055C113.349 45.1057 116.75 48.5048 116.75 52.9267V91.7391C116.75 96.9453 118.033 100.545 120.215 102.94C122.244 105.166 125.991 106.633 132.255 106.633C138.676 106.633 142.479 105.157 144.499 102.94C146.681 100.545 147.964 96.9451 147.964 91.7391L147.964 52.9267C147.964 48.5403 151.376 45.1055 155.786 45.1055H162.305C166.725 45.1057 170.126 48.5063 170.126 52.9267L170.126 92.2481C170.126 97.736 168.822 103.548 166.36 108.471C159.918 120.977 145.346 125.026 132.255 125.026C119.617 125.026 104.199 120.864 98.2302 108.428C95.7915 103.477 94.5869 98.0684 94.5869 92.2481V52.9267C94.5871 48.4416 98.0479 45.1056 102.409 45.1055H108.928Z" fill="#D80000"/>
<path d="M22.4312 209.722C22.0965 209.722 21.9292 209.541 21.9292 209.178V182.863C21.9292 182.5 22.0965 182.319 22.4312 182.319H29.2088C29.4877 182.319 29.6829 182.445 29.7945 182.696L33.6853 193.74C33.9642 194.438 34.2291 195.219 34.4801 196.083C34.7591 196.948 35.024 197.799 35.275 198.635C35.5261 199.444 35.7352 200.155 35.9026 200.769H35.9863C35.9305 200.044 35.8608 199.137 35.7771 198.05C35.7213 196.962 35.6655 195.874 35.6097 194.786C35.554 193.699 35.5261 192.792 35.5261 192.067V182.863C35.5261 182.5 35.6934 182.319 36.0281 182.319H41.174C41.5366 182.319 41.7179 182.5 41.7179 182.863V209.178C41.7179 209.541 41.5366 209.722 41.174 209.722H34.4383C34.1594 209.722 33.9642 209.596 33.8526 209.345L29.9618 198.51C29.5434 197.394 29.153 196.209 28.7904 194.954C28.4278 193.671 28.1071 192.527 27.8281 191.523H27.7026C27.7863 192.304 27.856 193.252 27.9118 194.368C27.9676 195.456 28.0094 196.543 28.0373 197.631C28.0931 198.691 28.121 199.625 28.121 200.434V209.178C28.121 209.541 27.9258 209.722 27.5353 209.722H22.4312Z" fill="#D80000"/>
<path d="M50.6111 209.722C50.2206 209.722 50.0951 209.513 50.2345 209.094L57.1376 182.737C57.2212 182.459 57.4165 182.319 57.7233 182.319H64.7518C65.0586 182.319 65.2678 182.459 65.3793 182.737L72.2824 209.094C72.366 209.513 72.2266 209.722 71.864 209.722H65.7977C65.4909 209.722 65.2957 209.583 65.212 209.304L62.2416 193.908C62.0464 192.932 61.8651 191.969 61.6977 191.021C61.5583 190.045 61.4188 189.097 61.2794 188.176H61.1539C61.0144 189.097 60.861 190.045 60.6937 191.021C60.5263 191.997 60.359 192.973 60.1916 193.95L57.1376 209.262C57.1097 209.569 56.9144 209.722 56.5518 209.722H50.6111ZM57.0957 204.66L58.0161 199.514H64.2498L65.2538 204.66H57.0957Z" fill="#D80000"/>
<path d="M81.3325 209.722C80.9978 209.722 80.8304 209.541 80.8304 209.178V182.863C80.8304 182.5 80.9978 182.319 81.3325 182.319H88.11C88.3889 182.319 88.5841 182.445 88.6957 182.696L92.5865 193.74C92.8654 194.438 93.1303 195.219 93.3814 196.083C93.6603 196.948 93.9252 197.799 94.1763 198.635C94.4273 199.444 94.6365 200.155 94.8038 200.769H94.8875C94.8317 200.044 94.762 199.137 94.6783 198.05C94.6225 196.962 94.5667 195.874 94.5109 194.786C94.4552 193.699 94.4273 192.792 94.4273 192.067V182.863C94.4273 182.5 94.5946 182.319 94.9293 182.319H100.075C100.438 182.319 100.619 182.5 100.619 182.863V209.178C100.619 209.541 100.438 209.722 100.075 209.722H93.3395C93.0606 209.722 92.8654 209.596 92.7538 209.345L88.863 198.51C88.4447 197.394 88.0542 196.209 87.6916 194.954C87.329 193.671 87.0083 192.527 86.7294 191.523H86.6039C86.6875 192.304 86.7573 193.252 86.813 194.368C86.8688 195.456 86.9107 196.543 86.9385 197.631C86.9943 198.691 87.0222 199.625 87.0222 200.434V209.178C87.0222 209.541 86.827 209.722 86.4365 209.722H81.3325Z" fill="#D80000"/>
<path d="M120.557 210.057C117.266 210.057 114.77 209.192 113.068 207.463C111.367 205.734 110.516 203.195 110.516 199.849V192.234C110.516 188.86 111.367 186.307 113.068 184.578C114.77 182.849 117.266 181.984 120.557 181.984C123.848 181.984 126.344 182.849 128.046 184.578C129.775 186.307 130.64 188.86 130.64 192.234V199.849C130.64 203.195 129.775 205.734 128.046 207.463C126.344 209.192 123.848 210.057 120.557 210.057ZM120.557 204.283C121.784 204.283 122.677 203.907 123.235 203.154C123.82 202.401 124.113 201.201 124.113 199.556V192.527C124.113 190.854 123.82 189.64 123.235 188.887C122.677 188.134 121.784 187.758 120.557 187.758C119.358 187.758 118.465 188.134 117.88 188.887C117.322 189.64 117.043 190.854 117.043 192.527V199.556C117.043 201.201 117.322 202.401 117.88 203.154C118.465 203.907 119.358 204.283 120.557 204.283Z" fill="#D80000"/>
<path d="M152.235 209.722C151.844 209.722 151.719 209.513 151.858 209.094L158.761 182.737C158.845 182.459 159.04 182.319 159.347 182.319H166.375C166.682 182.319 166.891 182.459 167.003 182.737L173.906 209.094C173.99 209.513 173.85 209.722 173.487 209.722H167.421C167.114 209.722 166.919 209.583 166.835 209.304L163.865 193.908C163.67 192.932 163.489 191.969 163.321 191.021C163.182 190.045 163.042 189.097 162.903 188.176H162.777C162.638 189.097 162.484 190.045 162.317 191.021C162.15 191.997 161.982 192.973 161.815 193.95L158.761 209.262C158.733 209.569 158.538 209.722 158.175 209.722H152.235ZM158.719 204.66L159.64 199.514H165.873L166.877 204.66H158.719Z" fill="#D80000"/>
<path d="M183.04 209.722C182.649 209.722 182.454 209.541 182.454 209.178V182.863C182.454 182.5 182.635 182.319 182.998 182.319H191.03C194.74 182.319 197.529 183.323 199.398 185.331C201.266 187.312 202.201 190.282 202.201 194.242V197.338C202.201 201.494 201.266 204.604 199.398 206.668C197.529 208.704 194.782 209.722 191.156 209.722H183.04ZM188.98 203.99H190.905C192.55 203.99 193.75 203.433 194.503 202.317C195.284 201.173 195.674 199.486 195.674 197.255V194.326C195.674 192.262 195.284 190.7 194.503 189.64C193.722 188.581 192.481 188.051 190.779 188.051H188.98V203.99Z" fill="#D80000"/>
<path d="M212.531 209.722C212.141 209.722 211.945 209.541 211.945 209.178V182.863C211.945 182.5 212.127 182.319 212.489 182.319H220.522C224.231 182.319 227.02 183.323 228.889 185.331C230.758 187.312 231.692 190.282 231.692 194.242V197.338C231.692 201.494 230.758 204.604 228.889 206.668C227.02 208.704 224.273 209.722 220.647 209.722H212.531ZM218.472 203.99H220.396C222.042 203.99 223.241 203.433 223.994 202.317C224.775 201.173 225.166 199.486 225.166 197.255V194.326C225.166 192.262 224.775 190.7 223.994 189.64C223.213 188.581 221.972 188.051 220.271 188.051H218.472V203.99Z" fill="#D80000"/>
<path d="M241.939 209.722C241.604 209.722 241.437 209.541 241.437 209.178V182.863C241.437 182.5 241.604 182.319 241.939 182.319H247.419C247.782 182.319 247.963 182.5 247.963 182.863V209.178C247.963 209.541 247.782 209.722 247.419 209.722H241.939Z" fill="#D80000"/>
<path d="M263.492 209.722C263.129 209.722 262.948 209.541 262.948 209.178V188.051H257.634C257.3 188.051 257.132 187.869 257.132 187.507V182.863C257.132 182.5 257.3 182.319 257.634 182.319H274.787C275.122 182.319 275.289 182.5 275.289 182.863V187.507C275.289 187.869 275.122 188.051 274.787 188.051H269.474V209.178C269.474 209.541 269.307 209.722 268.972 209.722H263.492Z" fill="#D80000"/>
<path d="M284.988 209.722C284.653 209.722 284.486 209.541 284.486 209.178V182.863C284.486 182.5 284.653 182.319 284.988 182.319H290.469C290.831 182.319 291.012 182.5 291.012 182.863V209.178C291.012 209.541 290.831 209.722 290.469 209.722H284.988Z" fill="#D80000"/>
<path d="M307.043 209.722C306.764 209.722 306.568 209.569 306.457 209.262L299.763 182.988C299.652 182.542 299.805 182.319 300.223 182.319H306.248C306.582 182.319 306.778 182.459 306.833 182.737L309.72 197.799C309.888 198.775 310.055 199.765 310.222 200.769C310.39 201.745 310.529 202.777 310.641 203.865H310.724C310.864 202.777 311.017 201.731 311.184 200.727C311.352 199.723 311.519 198.733 311.686 197.757L314.531 182.779C314.587 182.472 314.782 182.319 315.117 182.319H321.1C321.518 182.319 321.671 182.528 321.56 182.947L314.908 209.304C314.824 209.583 314.629 209.722 314.322 209.722H307.043Z" fill="#D80000"/>
<path d="M330.856 209.722C330.521 209.722 330.354 209.541 330.354 209.178V182.863C330.354 182.5 330.521 182.319 330.856 182.319H345.624C345.959 182.319 346.126 182.5 346.126 182.863V187.507C346.126 187.869 345.959 188.051 345.624 188.051H336.881V193.197H344.83C345.164 193.197 345.332 193.378 345.332 193.74V198.05C345.332 198.44 345.164 198.635 344.83 198.635H336.881V203.99H345.624C345.959 203.99 346.126 204.172 346.126 204.534V209.178C346.126 209.541 345.959 209.722 345.624 209.722H330.856Z" fill="#D80000"/>
<path d="M369.738 209.722C369.403 209.722 369.236 209.541 369.236 209.178V182.863C369.236 182.5 369.403 182.319 369.738 182.319H384.506C384.841 182.319 385.008 182.5 385.008 182.863V187.507C385.008 187.869 384.841 188.051 384.506 188.051H375.762V193.197H383.711C384.046 193.197 384.213 193.378 384.213 193.74V198.05C384.213 198.44 384.046 198.635 383.711 198.635H375.762V203.99H384.506C384.841 203.99 385.008 204.172 385.008 204.534V209.178C385.008 209.541 384.841 209.722 384.506 209.722H369.738Z" fill="#D80000"/>
<path d="M395.552 209.722C395.218 209.722 395.05 209.541 395.05 209.178V182.863C395.05 182.5 395.218 182.319 395.552 182.319H402.33C402.609 182.319 402.804 182.445 402.916 182.696L406.806 193.74C407.085 194.438 407.35 195.219 407.601 196.083C407.88 196.948 408.145 197.799 408.396 198.635C408.647 199.444 408.856 200.155 409.024 200.769H409.107C409.052 200.044 408.982 199.137 408.898 198.05C408.842 196.962 408.787 195.874 408.731 194.786C408.675 193.699 408.647 192.792 408.647 192.067V182.863C408.647 182.5 408.815 182.319 409.149 182.319H414.295C414.658 182.319 414.839 182.5 414.839 182.863V209.178C414.839 209.541 414.658 209.722 414.295 209.722H407.559C407.28 209.722 407.085 209.596 406.974 209.345L403.083 198.51C402.665 197.394 402.274 196.209 401.911 194.954C401.549 193.671 401.228 192.527 400.949 191.523H400.824C400.907 192.304 400.977 193.252 401.033 194.368C401.089 195.456 401.131 196.543 401.158 197.631C401.214 198.691 401.242 199.625 401.242 200.434V209.178C401.242 209.541 401.047 209.722 400.656 209.722H395.552Z" fill="#D80000"/>
<path d="M433.229 210.057C430.663 210.057 428.599 209.234 427.037 207.588C425.503 205.943 424.736 203.46 424.736 200.141V192.318C424.736 188.915 425.601 186.349 427.33 184.62C429.059 182.863 431.528 181.984 434.735 181.984C436.994 181.984 438.863 182.375 440.341 183.156C441.819 183.937 442.907 185.024 443.605 186.419C444.33 187.786 444.609 189.389 444.441 191.23C444.413 191.593 444.246 191.774 443.939 191.774H438.417C438.11 191.774 437.957 191.565 437.957 191.147C438.012 190.087 437.789 189.264 437.287 188.678C436.813 188.065 435.99 187.758 434.819 187.758C433.62 187.758 432.727 188.12 432.141 188.846C431.556 189.571 431.263 190.756 431.263 192.402V199.681C431.263 201.327 431.542 202.512 432.099 203.237C432.657 203.935 433.55 204.283 434.777 204.283C435.893 204.283 436.729 203.976 437.287 203.363C437.873 202.749 438.166 201.857 438.166 200.685V199.514H434.986C434.651 199.514 434.484 199.319 434.484 198.928V195.581C434.484 195.219 434.651 195.037 434.986 195.037H444.023C444.33 195.037 444.483 195.219 444.483 195.581V202.735C444.483 204.046 444.511 205.245 444.567 206.333C444.623 207.421 444.706 208.355 444.818 209.136C444.901 209.527 444.734 209.722 444.316 209.722H440.007C439.728 209.722 439.56 209.555 439.505 209.22C439.421 208.913 439.351 208.537 439.295 208.09C439.267 207.616 439.24 207.128 439.212 206.626H439.128C438.765 207.295 438.319 207.895 437.789 208.425C437.287 208.927 436.66 209.332 435.907 209.638C435.181 209.917 434.289 210.057 433.229 210.057Z" fill="#D80000"/>
<path d="M455.393 209.722C455.059 209.722 454.891 209.541 454.891 209.178V182.863C454.891 182.5 455.059 182.319 455.393 182.319H460.874C461.236 182.319 461.418 182.5 461.418 182.863V209.178C461.418 209.541 461.236 209.722 460.874 209.722H455.393Z" fill="#D80000"/>
<path d="M472.26 209.722C471.926 209.722 471.758 209.541 471.758 209.178V182.863C471.758 182.5 471.926 182.319 472.26 182.319H479.038C479.317 182.319 479.512 182.445 479.623 182.696L483.514 193.74C483.793 194.438 484.058 195.219 484.309 196.083C484.588 196.948 484.853 197.799 485.104 198.635C485.355 199.444 485.564 200.155 485.732 200.769H485.815C485.759 200.044 485.69 199.137 485.606 198.05C485.55 196.962 485.494 195.874 485.439 194.786C485.383 193.699 485.355 192.792 485.355 192.067V182.863C485.355 182.5 485.522 182.319 485.857 182.319H491.003C491.366 182.319 491.547 182.5 491.547 182.863V209.178C491.547 209.541 491.366 209.722 491.003 209.722H484.267C483.988 209.722 483.793 209.596 483.682 209.345L479.791 198.51C479.372 197.394 478.982 196.209 478.619 194.954C478.257 193.671 477.936 192.527 477.657 191.523H477.532C477.615 192.304 477.685 193.252 477.741 194.368C477.797 195.456 477.838 196.543 477.866 197.631C477.922 198.691 477.95 199.625 477.95 200.434V209.178C477.95 209.541 477.755 209.722 477.364 209.722H472.26Z" fill="#D80000"/>
<path d="M502.365 209.722C502.03 209.722 501.862 209.541 501.862 209.178V182.863C501.862 182.5 502.03 182.319 502.365 182.319H517.133C517.467 182.319 517.635 182.5 517.635 182.863V187.507C517.635 187.869 517.467 188.051 517.133 188.051H508.389V193.197H516.338C516.673 193.197 516.84 193.378 516.84 193.74V198.05C516.84 198.44 516.673 198.635 516.338 198.635H508.389V203.99H517.133C517.467 203.99 517.635 204.172 517.635 204.534V209.178C517.635 209.541 517.467 209.722 517.133 209.722H502.365Z" fill="#D80000"/>
<path d="M550.367 210.057C547.076 210.057 544.579 209.192 542.878 207.463C541.177 205.734 540.326 203.195 540.326 199.849V192.234C540.326 188.86 541.177 186.307 542.878 184.578C544.579 182.849 547.076 181.984 550.367 181.984C553.658 181.984 556.154 182.849 557.855 184.578C559.585 186.307 560.449 188.86 560.449 192.234V199.849C560.449 203.195 559.585 205.734 557.855 207.463C556.154 209.192 553.658 210.057 550.367 210.057ZM550.367 204.283C551.594 204.283 552.486 203.907 553.044 203.154C553.63 202.401 553.923 201.201 553.923 199.556V192.527C553.923 190.854 553.63 189.64 553.044 188.887C552.486 188.134 551.594 187.758 550.367 187.758C549.167 187.758 548.275 188.134 547.689 188.887C547.131 189.64 546.852 190.854 546.852 192.527V199.556C546.852 201.201 547.131 202.401 547.689 203.154C548.275 203.907 549.167 204.283 550.367 204.283Z" fill="#D80000"/>
<path d="M570.901 209.722C570.566 209.722 570.399 209.541 570.399 209.178V182.863C570.399 182.5 570.566 182.319 570.901 182.319H576.382C576.744 182.319 576.926 182.5 576.926 182.863V209.178C576.926 209.541 576.744 209.722 576.382 209.722H570.901Z" fill="#D80000"/>
<path d="M587.81 209.722C587.447 209.722 587.266 209.541 587.266 209.178V182.863C587.266 182.5 587.447 182.319 587.81 182.319H593.249C593.416 182.319 593.542 182.375 593.625 182.486C593.737 182.598 593.793 182.723 593.793 182.863V203.99H601.867C602.202 203.99 602.369 204.172 602.369 204.534V209.178C602.369 209.541 602.202 209.722 601.867 209.722H587.81Z" fill="#D80000"/>
</svg>
