<svg width="318" height="100" viewBox="0 0 318 100" fill="none" xmlns="http://www.w3.org/2000/svg">
<path fill-rule="evenodd" clip-rule="evenodd" d="M44.8108 24.8504C48.1922 18.4785 39.0471 3.35472 32.6242 0V0.00669036L2.63734 57.6647C-1.0236 63.9545 -1.62884 77.0826 5.75669 86.771C11.8825 94.8069 21.598 100 32.5367 100C45.2841 87.4964 43.7159 73.7962 41.0756 67.7477C43.3466 73.2801 39.0274 79.4214 32.5367 79.4219C25.7527 79.4219 21.3333 72.7098 24.3516 66.9908L44.8108 24.8504Z" fill="url(#paint0_linear_1185_4)"/>
<path d="M32.5367 100C42.6801 100 51.7719 95.5347 57.9249 88.478C66.6974 78.417 65.8946 64.9276 61.1966 57.6647C56.7258 50.753 49.4063 43.6327 42.0869 35.7554L36.5973 47.2683C33.5335 53.1046 37.5929 61.1383 40.7003 66.9518C40.8411 67.2152 40.966 67.4807 41.0756 67.7477C43.7159 73.7962 45.2841 87.4964 32.5367 100Z" fill="#528247"/>
<path d="M125.537 87.8912H118.177L123.921 55.2109H131.281L125.537 87.8912Z" fill="#2C2C2C"/>
<path d="M189.761 67.9598C190.778 67.9598 191.705 68.1544 192.543 68.5434C193.411 68.9325 194.114 69.4711 194.652 70.1595C195.221 70.8478 195.625 71.6558 195.864 72.5835C196.103 73.4814 196.133 74.439 195.954 75.4565L195.101 80.3496C194.922 81.397 194.548 82.3846 193.979 83.3124C193.441 84.2102 192.767 85.0032 191.96 85.6916C191.152 86.3799 190.254 86.9186 189.267 87.3076C188.28 87.6967 187.277 87.8912 186.26 87.8912H163.72L164.629 80.5292H187.562C187.681 80.5292 187.741 80.4693 187.741 80.3496L188.594 75.4565C188.624 75.3668 188.579 75.3219 188.459 75.3219H172.976C171.929 75.3219 170.972 75.1273 170.104 74.7383C169.266 74.3492 168.563 73.8105 167.995 73.1222C167.456 72.4339 167.067 71.6408 166.828 70.743C166.619 69.8153 166.604 68.8277 166.783 67.7803L167.636 62.7525C167.815 61.735 168.189 60.7624 168.758 59.8347C169.326 58.9069 169.999 58.1139 170.777 57.4555C171.585 56.7671 172.468 56.2285 173.425 55.8394C174.412 55.4204 175.43 55.2109 176.477 55.2109H198.242L196.941 62.573H175.22C175.13 62.573 175.056 62.6328 174.996 62.7525L174.098 67.7803C174.098 67.9 174.143 67.9598 174.233 67.9598H189.761Z" fill="#2C2C2C"/>
<path d="M236.904 55.2558L244.264 55.2109L239.776 80.5292H263.382L262.08 87.8912H231.16L236.904 55.2558Z" fill="#2C2C2C"/>
<path fill-rule="evenodd" clip-rule="evenodd" d="M140.848 62.573H163.377L164.678 55.2558H134.79L129.045 87.8912H159.227L160.327 80.5292H137.707L138.649 75.1872L139.951 67.8252L140.848 62.573ZM138.649 75.1872H161.123L162.424 67.8252H145.972C145.431 67.8252 144.917 68.058 144.56 68.4642L138.649 75.1872Z" fill="#2C2C2C"/>
<path d="M112.727 55.2558C114.821 55.2558 116.467 55.989 117.664 57.4555C118.86 58.892 119.279 60.6576 118.92 62.7525L115.779 80.3945C115.599 81.4419 115.225 82.4146 114.657 83.3124C114.118 84.2102 113.445 85.0032 112.637 85.6916C111.859 86.3799 110.977 86.9186 109.99 87.3076C109.002 87.6967 107.985 87.8912 106.938 87.8912H81.582L85.2582 67.0056H92.5983L90.1985 80.5292H108.239C108.329 80.5292 108.404 80.4843 108.464 80.3945L111.56 62.7525V62.7076L111.515 62.6179C111.485 62.5879 111.456 62.573 111.426 62.573H86.0384L87.3264 55.2558H112.727Z" fill="#2C2C2C"/>
<path fill-rule="evenodd" clip-rule="evenodd" d="M231.49 62.5731H208.962L208.064 67.8253L206.763 75.1873L205.82 80.5293H228.441L227.184 87.8913H197.159L202.903 55.2559H232.792L231.49 62.5731Z" fill="#2C2C2C"/>
<path d="M229.237 75.1873L230.538 67.8253H214.086C213.545 67.8253 213.031 68.0581 212.673 68.4643L206.763 75.1873H229.237Z" fill="#528247"/>
<path d="M99.5513 22.2156L95.5572 44.7506H88.2422L93.9865 12.0703H102.424L117.233 34.6053L121.227 12.0703H128.542L122.798 44.7506H114.361L99.5513 22.2156Z" fill="#528247"/>
<path d="M183.403 22.2156L179.409 44.7506H172.094L177.838 12.0703H186.275L201.085 34.6053L205.079 12.0703H212.394L206.65 44.7506H198.213L183.403 22.2156Z" fill="#528247"/>
<path d="M244.466 12.1152C246.56 12.1152 248.206 12.8484 249.403 14.3148C250.599 15.8112 251.018 17.5918 250.659 19.6568L247.563 37.2539C247.383 38.3013 247.009 39.2739 246.441 40.1717C245.902 41.0695 245.229 41.8626 244.421 42.5509C243.613 43.2392 242.716 43.7779 241.728 44.167C240.741 44.556 239.739 44.7506 238.722 44.7506H217.36C216.313 44.7506 215.355 44.556 214.488 44.167C213.65 43.7779 212.947 43.2392 212.378 42.5509C211.84 41.8626 211.451 41.0695 211.212 40.1717C211.002 39.2739 210.987 38.3013 211.167 37.2539L214.263 19.6568C214.443 18.6094 214.802 17.6367 215.34 16.7389C215.909 15.8112 216.597 15.0032 217.405 14.3148C218.213 13.6265 219.095 13.0878 220.053 12.6988C221.04 12.3097 222.057 12.1152 223.104 12.1152H244.466ZM243.299 19.6568C243.299 19.567 243.299 19.5221 243.299 19.5221C243.269 19.4922 243.224 19.4772 243.165 19.4772H221.803C221.683 19.4772 221.623 19.5371 221.623 19.6568L218.482 37.2539C218.482 37.3736 218.542 37.4334 218.661 37.4334H240.023C240.143 37.4334 240.203 37.3736 240.203 37.2539L243.299 19.6568Z" fill="#528247"/>
<path d="M127.035 44.7506L148.796 12.0703H159.082L169.277 44.7506H160.362L158.361 37.9307H146.105L149.802 31.5228H156.48L152.865 19.2037L136.544 44.7506H127.035Z" fill="#528247"/>
<defs>
<linearGradient id="paint0_linear_1185_4" x1="32.3276" y1="7.882" x2="32.3276" y2="99.9871" gradientUnits="userSpaceOnUse">
<stop stop-color="#D5D170"/>
<stop offset="1" stop-color="#7D9D3A"/>
</linearGradient>
</defs>
</svg>
