<svg width="412" height="351" viewBox="0 0 412 351" fill="none" xmlns="http://www.w3.org/2000/svg">
<g clip-path="url(#clip0_1409_21)">
<path d="M268.957 64.587C264.17 32.4517 279.829 14.5955 289.528 9.14014C311.132 -7.17815 333.198 1.48685 368.319 14.2215C372.777 15.8377 377.41 16.9306 382.019 18.0456C402.487 22.9973 411.053 33.9278 411.973 67.2564C412.163 74.1328 411.243 81.058 408.797 87.4875C396.053 120.99 369.788 140.339 346.028 137.141L309.028 138.64C301.559 138.64 274.914 130.36 271.409 84.9081C270.886 78.1136 269.961 71.3273 268.957 64.587Z" fill="#9FCB58"/>
<path fill-rule="evenodd" clip-rule="evenodd" d="M126.507 50.6392C110.173 52.0884 96.4262 65.9969 94.4729 83.0495C94.3567 84.0635 94.263 86.4678 94.2645 88.392C94.2676 92.1846 94.4524 93.0088 95.5203 93.9903C96.6934 95.069 96.8179 95.0807 107.022 95.0807C117.253 95.0807 117.072 95.0984 118.306 93.9761C119.341 93.0346 119.449 92.5526 119.587 88.2891C119.702 84.7081 119.773 84.115 120.242 82.781C120.531 81.9588 121.066 80.8215 121.43 80.2537C123.263 77.3979 127.263 75.2615 130.141 75.6023C134.432 76.1106 137.526 80.5947 139.037 88.4949C139.284 89.7882 139.398 91.9675 139.474 96.8539L139.577 103.464L138.99 103.609C137.308 104.025 129.392 107.388 125.335 109.412C116.598 113.768 110.338 118.097 104.848 123.579C95.9873 132.428 91.377 143.017 91.377 154.523C91.377 159.091 92.0675 162.753 93.6709 166.691C97.4151 175.886 106.115 182.98 116.382 185.212C123.328 186.722 130.127 186.023 137.148 183.077C138.381 182.56 139.423 182.136 139.463 182.136C139.503 182.136 139.535 182.69 139.535 183.368C139.535 184.438 139.614 184.687 140.136 185.271L140.737 185.944H147.699C153.733 185.944 154.838 185.895 155.985 185.578C159.436 184.625 162.112 182.504 163.49 179.628C164.933 176.618 164.842 179.754 164.846 132.778C164.848 103.936 164.778 89.5116 164.626 87.81C163.553 75.7517 159.657 66.2165 153.127 59.6664C147.608 54.1302 141.132 51.2895 132.538 50.634C129.501 50.4023 129.174 50.4025 126.507 50.6392ZM9.46666 51.1527C4.92764 52.1275 1.4909 55.6026 0.516413 60.2027C0.0556155 62.3781 0.050882 174.905 0.511473 177.333C1.61582 183.155 6.4368 186.87 12.8892 186.87C18.9137 186.87 23.3534 183.713 25.0597 178.217C25.3816 177.18 25.4165 173.512 25.5153 130.376L25.6224 83.6585L26.2678 82.7324C28.1247 80.0678 31.816 77.4158 34.9727 76.4784C36.9902 75.8793 41.501 76.1312 43.9703 76.9806C45.6015 77.5418 46.47 78.2745 47.1024 79.6233L47.6435 80.7772L47.7523 128.73C47.8744 182.374 47.7314 177.701 49.3461 180.777C50.7448 183.441 53.0701 185.314 56.1844 186.285C58.2153 186.919 62.5748 186.97 64.5195 186.382C68.36 185.223 71.0593 182.703 72.4028 179.025L72.9575 177.506L73.0184 129.759C73.0608 96.4581 73.0118 81.4206 72.8564 80.0569C72.0342 72.8441 69.4514 66.6913 65.1931 61.8014C60.8405 56.8032 54.1745 52.9868 47.0816 51.4321C43.2292 50.5877 36.5529 50.6894 31.6745 51.6665C29.9047 52.0212 26.8329 52.8376 25.8796 53.2068C25.5697 53.327 25.5194 53.2187 25.5194 52.4301C25.5194 50.7849 25.7415 50.8304 17.7855 50.8489C12.6404 50.861 10.4527 50.9409 9.46666 51.1527ZM192.016 51.1537C187.937 52.0329 184.801 54.8759 183.421 58.9459L182.857 60.6084V118.645C182.857 173.439 182.878 176.757 183.22 178.02C184.719 183.545 189.289 186.87 195.385 186.87C201.661 186.87 206.219 183.537 207.663 177.895C208.06 176.339 208.068 175.409 208.073 130.292C208.077 85.0411 208.084 84.2611 208.481 83.3875C209.299 81.5848 212.441 78.7958 215.225 77.4002C217.382 76.3195 218.71 76.0748 221.652 76.2168C226.869 76.4683 229.093 77.5589 230.031 80.3239C230.372 81.3313 230.4 84.2432 230.499 129.45L230.604 177.506L231.064 178.858C232.004 181.623 234.007 184.02 236.441 185.294C238.766 186.512 239.912 186.76 243.158 186.751C245.721 186.744 246.223 186.683 247.702 186.191C251.611 184.893 254.163 182.095 255.343 177.814C255.693 176.546 255.712 174.013 255.712 129.141C255.712 77.7566 255.762 80.0625 254.55 75.1207C252.585 67.104 248.283 60.893 241.615 56.4425C238.279 54.2165 233.693 52.2885 229.711 51.4379C225.878 50.6194 219.548 50.6783 214.68 51.5778C213.135 51.8633 209.362 52.8466 208.429 53.2072C208.119 53.327 208.068 53.2185 208.068 52.4301C208.068 50.7849 208.29 50.8304 200.334 50.8489C195.175 50.861 193.004 50.9407 192.016 51.1537ZM306.454 51.0543C290.862 52.8139 277.908 64.6016 274.762 79.8923C273.975 83.7186 273.93 85.8347 273.928 119.715C273.926 155.838 273.898 154.921 275.149 159.75C278.044 170.918 286.266 180.097 297.285 184.462C303.932 187.095 312.106 187.569 319.266 185.737C331.934 182.495 342.137 172.304 345.439 159.596C346.592 155.16 346.575 155.748 346.575 119.48C346.575 98.4919 346.498 85.2763 346.367 83.9376C346.107 81.2747 345.483 78.2572 344.695 75.8431C343.845 73.2421 341.485 68.5864 339.841 66.268C338.046 63.7364 333.645 59.3406 331.14 57.5764C326.598 54.3786 321.419 52.2502 315.91 51.3183C313.673 50.9399 308.699 50.8009 306.454 51.0543ZM313.249 76.4749C316.994 77.5751 319.99 80.6147 320.946 84.2846C321.223 85.3465 321.261 89.5417 321.261 118.645C321.261 155.022 321.335 152.82 320.03 155.484C318.386 158.844 314.837 161.199 310.988 161.483C306.135 161.842 301.508 158.719 299.816 153.941L299.343 152.603L299.282 119.366C299.238 95.4985 299.285 85.78 299.451 84.8933C300.17 81.0329 303.456 77.5029 307.289 76.472C308.806 76.0639 311.855 76.0655 313.249 76.4749ZM139.535 140.3V150.326L136.805 153.008C131.613 158.108 127.231 160.565 123.277 160.593C120.218 160.615 118.206 159.607 117.198 157.546C116.671 156.468 116.64 156.264 116.754 154.598C117.34 146.03 124.043 138.249 136.306 131.901C138.026 131.011 139.456 130.281 139.484 130.278C139.512 130.275 139.535 134.785 139.535 140.3ZM32.6436 214.453C24.3247 215.407 17.1804 218.716 11.1833 224.392C5.90418 229.39 2.23118 236.003 0.574038 243.495L0.102539 245.627V282.26V318.894L0.587827 321.157C1.31226 324.536 2.11305 326.788 3.80867 330.213C7.36642 337.399 12.8791 342.912 20.0656 346.47C23.4972 348.169 25.7526 348.971 29.121 349.692C31.1653 350.129 31.8842 350.175 36.53 350.166C42.3467 350.156 43.8855 349.93 48.3854 348.433C60.9204 344.26 69.6809 333.175 71.8157 318.786C72.1929 316.243 72.6171 309.786 72.4541 309.067C72.1306 307.638 71.4829 306.787 70.2409 306.159C69.5076 305.787 64.7798 305.736 55.3459 305.999C50.498 306.133 50.4937 306.134 49.639 306.7C48.2835 307.597 47.9841 308.425 47.6338 312.243C47.2786 316.114 46.9584 317.499 45.9608 319.48C44.6377 322.107 42.3837 323.889 39.4195 324.65C37.8472 325.053 35.0019 325.053 33.4516 324.65C29.7251 323.679 26.5993 320.553 25.6287 316.827C25.3521 315.765 25.3136 311.547 25.3136 282.239C25.3136 249.647 25.3231 248.83 25.7178 247.552C27.9187 240.429 36.1242 237.426 42.2594 241.498C44.253 242.821 46.0127 245.154 46.7711 247.479C46.8818 247.819 47.0401 249.871 47.1228 252.039C47.266 255.794 47.2992 256.026 47.8168 256.909C48.1156 257.419 48.7083 258.053 49.1337 258.318L49.9073 258.799H59.8889H69.8704L70.644 258.318C71.0694 258.053 71.6714 257.405 71.9818 256.877L72.5459 255.917L72.5136 251.492C72.4679 245.23 71.7428 241.422 69.6535 236.469C64.9245 225.259 54.4011 216.9 42.4321 214.846C39.6585 214.37 34.9961 214.183 32.6436 214.453ZM124.11 214.465C115.205 215.323 106.546 219.75 100.596 226.487C96.26 231.398 93.3525 237.223 91.9555 243.8L91.4799 246.039L91.4143 281.025C91.3659 306.782 91.4122 316.582 91.5898 318.173C92.2846 324.403 94.8195 330.718 98.685 335.848C100.541 338.312 104.248 341.912 106.818 343.747C109.186 345.438 113.82 347.763 116.51 348.608C120.838 349.969 122.282 350.171 127.702 350.166C132.056 350.162 132.897 350.106 134.802 349.694C142.367 348.057 148.821 344.44 154.067 338.897C158.2 334.53 161.364 328.883 162.795 323.318C163.955 318.813 163.886 321.104 163.97 283.907C164.023 260.539 163.978 248.813 163.829 247.273C163.226 241.06 161.174 235.42 157.576 230.089C155.471 226.97 151.116 222.652 147.973 220.568C140.677 215.731 132.55 213.653 124.11 214.465ZM213.974 214.472C211.49 214.711 207.74 215.575 205.393 216.448C193.533 220.86 184.778 230.843 182.149 242.952C181.309 246.819 181.287 247.986 181.356 283.804L181.423 318.276L181.884 320.582C182.559 323.961 183.598 326.959 185.223 330.213C190.252 340.283 199.327 347.267 210.538 349.694C212.448 350.108 213.284 350.163 217.741 350.169C222.203 350.175 223.052 350.122 225.116 349.703C229.865 348.741 234.081 347.024 237.91 344.491C240.712 342.638 244.983 338.329 246.946 335.373C251.288 328.837 253.287 322.074 253.873 311.942C254.042 309.023 253.82 308.014 252.78 306.974C251.558 305.753 251.517 305.749 241.527 305.913C231.896 306.071 231.641 306.099 230.528 307.121C229.629 307.946 229.311 309.042 229.053 312.205C228.65 317.141 227.76 319.663 225.634 321.892C223.646 323.977 221.11 324.965 217.748 324.965C212.896 324.965 209.005 322.189 207.195 317.436L206.731 316.218L206.672 283.186C206.63 259.182 206.678 249.77 206.849 248.745C207.212 246.561 208.394 244.409 210.127 242.773C212.398 240.631 214.691 239.69 217.638 239.69C222.26 239.69 226.26 242.487 227.968 246.911C228.455 248.173 228.517 248.666 228.633 252.213C228.77 256.365 228.879 256.841 229.919 257.811C231.071 258.887 231.217 258.901 241.306 258.901C251.394 258.901 251.529 258.888 252.701 257.811C253.789 256.811 253.954 256.033 253.954 251.904C253.955 247.511 253.626 244.635 252.742 241.327C248.144 224.095 231.777 212.757 213.974 214.472ZM305.541 214.453C296.688 215.468 288.994 219.231 282.959 225.499C276.99 231.697 273.603 239.268 272.894 247.994C272.738 249.911 272.691 261.139 272.743 284.215C272.823 320.144 272.772 318.475 273.924 323.035C277.465 337.055 289.483 347.884 303.837 349.989C307.048 350.46 313.32 350.307 316.219 349.686C329.071 346.935 339.442 337.778 343.493 325.605C343.931 324.291 344.499 322.289 344.756 321.157L345.224 319.099L345.289 283.392C345.359 244.483 345.395 245.894 344.206 241.314C340.722 227.907 329.032 217.198 315.309 214.843C312.554 214.37 307.888 214.184 305.541 214.453ZM131.006 240.192C132.663 240.703 134.448 241.884 135.789 243.354C136.932 244.607 137.445 245.472 138.172 247.366L138.609 248.508L138.664 281.587C138.725 318.065 138.784 316.255 137.444 318.996C137.029 319.845 136.293 320.832 135.433 321.696C133.267 323.869 130.675 324.967 127.716 324.962C124.689 324.958 122.402 324.039 120.165 321.929C118.592 320.445 117.313 318.225 116.91 316.279C116.75 315.508 116.7 305.411 116.739 281.746L116.794 248.302L117.327 246.935C118.854 243.013 122.266 240.309 126.467 239.69C127.491 239.539 129.675 239.781 131.006 240.192ZM310.662 239.769C313.898 240.229 317.198 242.548 318.734 245.441C320.108 248.032 320.026 245.689 320.026 282.363C320.026 319.03 320.108 316.702 318.737 319.274C317.893 320.857 315.918 322.831 314.335 323.675C308.139 326.978 300.711 323.853 298.562 317.041L298.108 315.601V282.157V248.714L298.588 247.384C300.071 243.274 303.318 240.452 307.337 239.781C308.801 239.537 309.024 239.536 310.662 239.769Z" fill="#1E1E61"/>
</g>
<defs>
<clipPath id="clip0_1409_21">
<rect width="411.61" height="350.28" fill="white"/>
</clipPath>
</defs>
</svg>
