<svg width="1358" height="230" viewBox="0 0 1358 230" fill="none" xmlns="http://www.w3.org/2000/svg">
<path d="M3.33685 78.5362C0.487482 86.9393 0 91.7834 0 111.698V129.583L1.85601 131.934C4.37717 135.128 9.34008 139.671 12.6668 141.83C14.1752 142.809 18.0141 144.965 21.1975 146.622C28.0745 150.201 30.4736 152.143 32.1234 155.466L33.3506 157.937L33.5191 126.191C33.7064 90.8754 33.5868 92.2445 37.1227 84.9779C39.7426 79.5945 46.2067 73.1965 51.7979 70.4524C58.7088 67.061 66.7845 66.099 74.2129 67.783C78.9175 68.8493 83.5071 71.3646 87.4502 74.7677C73.3719 59.4144 36.3049 53.6325 19.5313 52.6606C12.3205 59.8491 6.68346 68.6665 3.33685 78.5362Z" fill="#0065BD"/>
<path fill-rule="evenodd" clip-rule="evenodd" d="M59.5434 33.3198C44.3093 34.9572 30.1984 42.0265 19.5313 52.6606C36.3049 53.6325 73.3719 59.4144 87.4502 74.7677C93.3045 79.8201 97.7339 86.8294 98.9994 93.9592C99.545 97.0333 99.6975 104.244 99.7289 128.455L99.7681 159.065L100.938 156.81C102.565 153.675 105.052 151.708 112.172 147.92C122.26 142.554 126.918 138.957 131.472 133.018L133.61 130.23L133.609 114.767C133.609 89.2127 132.328 81.5695 125.975 69.2207C119.081 55.8189 105.836 43.5872 92.1548 37.989C82.4638 34.0233 69.828 32.2145 59.5434 33.3198ZM224.711 73.741C224.224 74.0294 223.81 74.2746 223.458 74.5896C221.456 76.3814 221.458 80.4298 221.47 107.506C221.471 109.798 221.472 112.255 221.472 114.889V151.853L222.925 154.193C223.725 155.483 225.134 156.938 226.064 157.435C229.724 159.391 235.003 157.826 237.077 154.17C238.156 152.267 238.158 152.214 238.166 127.848C238.17 114.42 238.346 103.433 238.556 103.433C238.882 103.433 251.56 117.763 278.441 148.515C281.819 152.378 285.345 156.084 286.278 156.751C289.499 159.051 293.461 158.661 296.674 155.729C296.764 155.647 296.85 155.57 296.933 155.495C297.17 155.284 297.382 155.095 297.571 154.885C299.172 153.114 299.172 149.883 299.17 119.306C299.169 118.031 299.169 116.709 299.169 115.337C299.169 113.673 299.17 112.082 299.17 110.56C299.174 80.8918 299.174 77.5761 297.579 75.4896C297.378 75.227 297.152 74.984 296.897 74.7103C296.794 74.5986 296.685 74.4817 296.571 74.3563C292.869 70.2711 286.063 71.3507 283.266 76.4664C282.565 77.7486 282.439 80.8878 282.226 102.461L281.984 126.998L262.136 104.418C251.22 91.9992 240.696 79.9739 238.75 77.6952C236.804 75.4165 234.516 73.1786 233.667 72.7223C231.202 71.3978 228.093 71.6097 225.467 73.2816C225.197 73.4531 224.946 73.6021 224.711 73.741ZM360.565 72.9473C358.255 74.3636 357.061 75.9422 355.248 79.9754C354.434 81.7872 346.914 97.6542 338.537 115.235C330.161 132.816 323.188 147.933 323.043 148.829C322.54 151.939 324.754 156.062 327.764 157.625C330.846 159.225 335.775 157.926 337.88 154.959C338.448 154.158 340.663 149.89 342.804 145.473L346.694 137.444H364.593H382.491L386.024 144.876C387.968 148.963 390.133 153.223 390.836 154.341C393.039 157.842 397.909 159.374 401.28 157.625C404.342 156.035 406.502 151.935 405.98 148.704C405.824 147.74 402.003 139.401 397.49 130.172C392.975 120.944 387.056 108.583 384.335 102.704C381.615 96.8253 377.782 88.5456 375.818 84.305C373.854 80.0648 371.8 76.0199 371.252 75.3164C369.632 73.2349 366.952 71.8565 364.522 71.8565C363.115 71.8565 361.713 72.2433 360.565 72.9473ZM435.199 72.3963C433.653 73.0134 431.436 75.1206 430.557 76.8075C429.987 77.9032 429.874 84.1781 429.874 114.851C429.874 147.717 429.957 151.746 430.657 153.138C432.366 156.531 434.916 158.343 437.959 158.326C440.106 158.313 443.288 156.962 444.564 155.522C446.687 153.125 446.774 152.021 446.796 127.119C446.808 114.092 446.933 103.433 447.075 103.433C447.216 103.433 448.033 104.244 448.89 105.235C449.747 106.226 460.198 118.138 472.113 131.706C495.485 158.319 495.85 158.666 499.922 158.205C502.421 157.923 505.283 156.061 506.613 153.853C507.546 152.306 507.571 151.273 507.571 115.299V78.3346L506.119 75.9947C504.439 73.2884 502.103 71.8517 499.381 71.8517C496.879 71.8517 493.771 73.3957 492.293 75.3727L491.112 76.9533L490.979 101.89C490.895 117.452 490.671 126.768 490.382 126.67C489.962 126.526 457.336 89.5834 447.41 78.012C444.934 75.125 442.638 72.9279 441.676 72.5246C439.832 71.7511 436.958 71.6942 435.199 72.3963ZM566.927 72.3997C563.21 73.0197 555.955 75.5433 552.98 77.2511C545.613 81.4821 539.639 87.7357 536.092 94.9304C529.749 107.797 529.745 122.171 536.082 135.223C543.637 150.782 560.885 159.965 578.784 157.957C593.68 156.286 605.664 148.132 612.141 135.258C618.451 122.714 618.553 108.163 612.417 95.4406C606.651 83.4838 594.375 74.4889 580.911 72.3574C577.196 71.7691 570.593 71.789 566.927 72.3997ZM645.068 72.9604C642.528 74.4044 641.07 76.6788 640.702 79.7713C640.537 81.1609 640.468 97.9307 640.549 117.037C640.689 149.965 640.939 150.806 640.939 153.626C640.939 155.179 644.327 158.093 645.948 158.093H663.417C678.45 158.089 681.338 157.965 684.194 157.233C695.082 154.444 702.413 149.273 708.501 140.09C711.402 135.714 712.953 132.255 714.634 126.409C716.179 121.036 716.159 108.968 714.595 103.19C711.357 91.2271 703.689 81.2377 694.112 76.5053C686.802 72.8938 683.556 72.2433 671.493 71.9726L661.143 71.7409L661.482 73.6183C662.016 76.5704 664.061 80.6677 666.016 82.704C668.327 85.111 671.102 86.5069 678.894 89.1841C686.562 91.818 689.326 93.2668 692.227 96.1713C696.651 100.601 699.012 107.098 699.015 114.851C699.018 127.239 691.586 137.961 681.14 140.638C676.692 141.777 670.094 141.416 666.858 139.856C663.667 138.319 660.968 135.526 659.429 132.171C658.296 129.698 658.136 128.611 657.818 121.167C657.624 116.624 657.45 103.67 657.431 92.3796L657.398 71.8517L652.194 71.8594C647.7 71.8667 646.728 72.0168 645.068 72.9604ZM744.777 72.5741C742.742 73.5337 741.907 74.2878 740.725 76.2332C739.702 77.9182 739.697 78.0727 739.696 114.698C739.694 139.503 739.861 151.916 740.209 152.839C740.84 154.514 742.877 156.731 744.632 157.651C747.284 159.042 752.22 157.964 754.384 155.522C756.581 153.042 756.594 152.817 756.616 114.957L756.617 112.319C756.637 81.0161 756.64 77.5365 754.963 75.3612C754.753 75.0891 754.517 74.8373 754.251 74.554C754.193 74.4921 754.133 74.4286 754.072 74.3631C751.75 71.8657 747.865 71.1185 744.777 72.5741ZM815.776 72.3638C812.298 72.9881 806.584 74.9471 803.21 76.6729C795.149 80.795 788.521 87.6268 784.763 95.6869C782.132 101.328 780.819 106.586 780.495 112.776C779.408 133.5 791.471 150.755 811.2 156.696C814.911 157.813 816.35 157.981 822.474 158.012C828.208 158.04 830.291 157.848 833.85 156.958C852.831 152.216 866.042 135.036 866.042 115.094C866.042 98.6191 856.92 83.6646 842.522 76.5369C836.146 73.3812 831.656 72.2583 824.652 72.0698C821.191 71.9765 817.197 72.1092 815.776 72.3638ZM895.088 72.3963C893.541 73.0134 891.324 75.1206 890.446 76.8075C889.875 77.9032 889.763 84.1781 889.763 114.851C889.763 147.717 889.845 151.746 890.545 153.138C892.254 156.531 894.804 158.343 897.847 158.326C899.994 158.313 903.176 156.962 904.452 155.522C906.576 153.125 906.662 152.021 906.685 127.119C906.696 114.092 906.822 103.433 906.963 103.433C907.104 103.433 907.921 104.244 908.778 105.235C909.635 106.226 920.086 118.138 932.001 131.706C954.382 157.19 955.547 158.336 959.058 158.336C962.456 158.336 968 156.617 968 151.992C968 142.436 967.892 134.17 967.823 125.258L967.46 78.3336L966.007 75.9942C964.327 73.2884 961.99 71.8517 959.269 71.8517C956.767 71.8517 953.659 73.3957 952.181 75.3727L951 76.9533L950.867 101.89C950.783 117.452 950.559 126.768 950.27 126.67C949.851 126.526 917.224 89.5834 907.298 78.012C904.822 75.125 902.526 72.9279 901.564 72.5246C899.72 71.7511 896.846 71.6942 895.088 72.3963ZM567.983 89.616C559.867 91.4016 552.765 97.8967 549.42 106.591C548.481 109.032 548.298 110.417 548.297 115.094C548.295 120.01 548.452 121.083 549.598 124.023C553.746 134.662 563.187 141.316 574.134 141.316C585.185 141.316 594.503 134.734 598.683 123.976C599.778 121.156 599.967 119.911 599.996 115.337C600.037 108.758 598.95 105.151 595.396 100.072C591.387 94.3415 586.382 90.9866 579.814 89.6247C575.43 88.7157 572.084 88.7132 567.983 89.616ZM817.177 89.6131C812.801 90.5654 809.355 92.3913 805.909 95.5849C799.893 101.158 797.211 107.161 797.192 115.094C797.179 120.67 798.326 124.73 801.114 128.976C807.849 139.233 818.303 143.356 829.979 140.359C834.661 139.157 837.345 137.615 841.193 133.919C846.33 128.983 849.099 122.391 849.099 115.094C849.099 107.808 846.6 101.796 841.403 96.5809C834.951 90.1048 826.321 87.623 817.177 89.6131ZM359.761 109.871C357.312 115.015 355.312 119.497 355.316 119.831C355.322 120.296 357.49 120.439 364.522 120.439C370.151 120.439 373.72 120.255 373.72 119.967C373.72 118.9 365.038 100.518 364.534 100.518C364.358 100.518 362.21 104.727 359.761 109.871ZM0.0053251 165.182C0.0053251 165.182 0 176.331 0 184.418C0 187.975 9.9239 196.684 13.8407 196.684C21.1975 196.684 28.7837 194.094 31.9966 187.3C33.6953 183.708 34.1285 180.333 33.4058 176.331C32.2793 170.096 29.8535 167.43 21.1728 162.886C11.4604 157.802 5.5569 153.276 1.29785 147.647L0.0106501 145.947L0.0053251 165.182Z" fill="#0086F8"/>
<path d="M132.757 146.028C132.534 147.121 125.184 154.541 122.22 156.663C120.574 157.843 116.319 160.352 112.765 162.239C104.84 166.447 102.6 168.236 100.905 171.712C99.0367 175.545 98.7109 181.737 100.173 185.615C102.321 191.314 106.428 195.014 112.262 196.507C120.336 198.573 129.251 193.957 132.137 186.217C133.094 183.65 133.131 182.723 133.004 164.498C132.931 154.028 132.82 145.716 132.757 146.028Z" fill="#0065BD"/>
</svg>
